<?xml version="1.0" encoding="UTF-8"?>
<svg width="0" height="0" class="hidden">
  <symbol xmlns="http://www.w3.org/2000/svg" viewBox="0 0 20 19" id="icon-sun">
    <path d="M10 15.635c.33 0 .612.295.612.639v1.89c0 .344-.282.638-.612.638s-.612-.294-.612-.638v-1.89c0-.344.282-.639.612-.639zm-4.488-1.783c.27.262.27.68 0 .941L4.03 16.231a.698.698 0 01-.97 0 .649.649 0 010-.941l1.482-1.438c.27-.261.7-.261.97 0zm9.946 0l1.483 1.438c.27.261.27.68 0 .941a.698.698 0 01-.97 0l-1.483-1.438a.649.649 0 010-.94c.242-.262.674-.262.97 0zM10 4.552c1.396 0 2.685.525 3.598 1.4.913.85 1.504 2.05 1.504 3.35 0 1.3-.59 2.5-1.504 3.35a5.314 5.314 0 01-3.598 1.4c-1.396 0-2.685-.525-3.598-1.4-.913-.85-1.504-2.05-1.504-3.35 0-1.3.564-2.5 1.504-3.35A5.314 5.314 0 0110 4.552zM2.607 8.906c.355 0 .658.274.658.594 0 .32-.303.594-.658.594H.658C.304 10.094 0 9.82 0 9.5c0-.32.304-.594.658-.594h1.95zm16.735 0c.354 0 .658.274.658.594 0 .32-.304.594-.658.594h-1.95c-.354 0-.657-.274-.657-.594 0-.32.303-.594.658-.594h1.949zM4.03 2.77l1.482 1.438c.27.261.27.68 0 .94-.242.262-.674.262-.97 0L3.059 3.71a.649.649 0 010-.941c.27-.261.701-.261.97 0zm12.91 0c.27.261.27.68 0 .941l-1.482 1.438a.698.698 0 01-.97 0 .649.649 0 010-.941l1.482-1.438c.27-.261.701-.261.97 0zM10 .198c.33 0 .612.294.612.638v1.89c0 .344-.282.639-.612.639s-.612-.295-.612-.639V.836c0-.344.282-.638.612-.638z" fill="#FFF" fill-rule="nonzero" />
  </symbol>
  <symbol xmlns="http://www.w3.org/2000/svg" viewBox="0 0 17 24" id="icon-location">
    <path d="M14.358 2.451A8.3 8.3 0 008.448 0a8.3 8.3 0 00-5.911 2.451c-2.922 2.925-3.285 8.427-.786 11.76l6.697 9.683 6.687-9.669c2.508-3.347 2.145-8.85-.777-11.774zm-5.833 8.894a3.057 3.057 0 01-3.051-3.054 3.057 3.057 0 013.05-3.055 3.057 3.057 0 013.052 3.055 3.057 3.057 0 01-3.051 3.054z" fill="#5964E0" fill-rule="nonzero" />
  </symbol>
  <symbol xmlns="http://www.w3.org/2000/svg" fill="none" viewBox="0 0 1440 160" id="bg-navbar">
    <path d="M1440 0H0v60c0 55.228 44.772 100 100 100h1340V0z" fill="#5964E0" />
    <mask id="a" maskUnits="userSpaceOnUse" x="0" y="0" width="1440" height="160">
      <path d="M1440 0H0v60c0 55.228 44.772 100 100 100h1340V0z" fill="#fff" />
    </mask>
    <g mask="url(#a)" fill-rule="evenodd" clip-rule="evenodd" fill="#fff">
      <path opacity=".081" d="M1163.89-205.424c21.12-23.963 60.32-15.63 69.88 14.853l114.11 364.163c9.39 29.936-16.96 58.887-47.64 52.364l-366.492-77.899c-30.685-6.522-42.976-43.685-22.23-67.217l252.372-286.264zM254.539-323.259c-3.117-31.792 29.711-54.779 58.52-40.976L657.22-199.336c28.291 13.555 31.498 52.566 5.8 70.56L356.104 86.129c-25.698 17.994-61.259 1.637-64.321-29.584L254.539-323.26zM-71.46 71.741c-3.119-31.792 29.71-54.78 58.52-40.976l344.16 164.899c28.291 13.555 31.498 52.566 5.8 70.56L30.104 481.129c-25.698 17.994-61.26 1.637-64.32-29.584L-71.462 71.741z" />
    </g>
  </symbol>
  <symbol xmlns="http://www.w3.org/2000/svg" viewBox="0 0 24 24" id="icon-search">
    <path d="M17.112 15.059h-1.088l-.377-.377a8.814 8.814 0 002.15-5.784A8.898 8.898 0 008.898 0 8.898 8.898 0 000 8.898a8.898 8.898 0 008.898 8.899c2.211 0 4.23-.808 5.784-2.143l.377.377v1.081l6.845 6.832 2.04-2.04-6.832-6.845zm-8.214 0A6.16 6.16 0 118.9 2.737a6.16 6.16 0 010 12.322z" fill="#5964E0" fill-rule="nonzero" />
  </symbol>
  <symbol xmlns="http://www.w3.org/2000/svg" viewBox="0 0 12 12" id="icon-moon">
    <path d="M6 0c1.516 0 2.925.566 3.978 1.523A3.979 3.979 0 008 1a4.014 4.014 0 00-2.821 1.179A3.927 3.927 0 004 5c0 1.095.463 2.105 1.179 2.821A3.927 3.927 0 008 9a4.034 4.034 0 003.974-3.548c.017.18.026.364.026.548a6.02 6.02 0 01-1.768 4.232A6.02 6.02 0 016 12a5.89 5.89 0 01-4.232-1.768A6.02 6.02 0 010 6a5.89 5.89 0 011.768-4.232A6.02 6.02 0 016 0z" fill="#FFF" fill-rule="nonzero" />
  </symbol>
  <symbol xmlns="http://www.w3.org/2000/svg" fill="none" viewBox="0 0 730 261" id="bg-footer">
    <rect y="1" width="730" height="259" rx="6" fill="#5964E0" />
    <mask id="a" maskUnits="userSpaceOnUse" x="0" y="1" width="730" height="259">
      <rect y="1" width="730" height="259" rx="6" fill="#fff" />
    </mask>
    <g mask="url(#a)">
      <path opacity=".081" fill-rule="evenodd" clip-rule="evenodd" d="M549.888-78.424c21.125-23.963 60.326-15.63 69.879 14.853l114.117 364.163c9.381 29.936-16.962 58.887-47.648 52.364l-366.488-77.899c-30.685-6.522-42.976-43.685-22.23-67.218l252.37-286.263z" fill="#fff" />
    </g>
  </symbol>
  <symbol xmlns="http://www.w3.org/2000/svg" viewBox="0 0 15 12" id="icon-check">
    <path d="M1 6.57l3.572 3.572L13.714 1" stroke="#FFF" stroke-width="2" fill="none" fill-rule="evenodd" />
  </symbol>
  <symbol xmlns="http://www.w3.org/2000/svg" fill="none" viewBox="0 0 24 24" id="icon-info">
    <path d="M12 17V11" stroke="#f4f6f8" stroke-width="1.5" stroke-linecap="round" />
    <circle cx="1" cy="1" r="1" transform="matrix(1 0 0 -1 11 9)" fill="#f4f6f8" />
    <path d="M7 3.33782C8.47087 2.48697 10.1786 2 12 2C17.5228 2 22 6.47715 22 12C22 17.5228 17.5228 22 12 22C6.47715 22 2 17.5228 2 12C2 10.1786 2.48697 8.47087 3.33782 7" stroke="#f4f6f8" stroke-width="1.5" stroke-linecap="round" />
  </symbol>
  <symbol xmlns="http://www.w3.org/2000/svg" fill="none" viewBox="0 0 24 24" id="icon-close">
    <path d="M14.5 9.50002L9.5 14.5M9.49998 9.5L14.5 14.5" stroke="#eee" stroke-width="1.5" stroke-linecap="round" />
    <path d="M7 3.33782C8.47087 2.48697 10.1786 2 12 2C17.5228 2 22 6.47715 22 12C22 17.5228 17.5228 22 12 22C6.47715 22 2 17.5228 2 12C2 10.1786 2.48697 8.47087 3.33782 7" stroke="#eee" stroke-width="1.5" stroke-linecap="round" />
  </symbol>
  <symbol xmlns="http://www.w3.org/2000/svg" fill="none" viewBox="0 0 24 24" id="icon-close-dark">
    <path d="M14.5 9.50002L9.5 14.5M9.49998 9.5L14.5 14.5" stroke="#121721" stroke-width="1.5" stroke-linecap="round" />
    <path d="M7 3.33782C8.47087 2.48697 10.1786 2 12 2C17.5228 2 22 6.47715 22 12C22 17.5228 17.5228 22 12 22C6.47715 22 2 17.5228 2 12C2 10.1786 2.48697 8.47087 3.33782 7" stroke="#121721" stroke-width="1.5" stroke-linecap="round" />
  </symbol>
  <symbol xmlns="http://www.w3.org/2000/svg" version="1" enable-background="new 0 0 48 48" viewBox="0 0 48 48" id="icon-valid">
    <circle fill="#4CAF50" cx="24" cy="24" r="21" />
    <polygon fill="#CCFF90" points="34.6,14.6 21,28.2 15.4,22.6 12.6,25.4 21,33.8 37.4,17.4" />
  </symbol>
  <symbol xmlns="http://www.w3.org/2000/svg" fill="" viewBox="0 0 16 16" id="icon-error">
    <path d="M7.493 0.015 C 7.442 0.021,7.268 0.039,7.107 0.055 C 5.234 0.242,3.347 1.208,2.071 2.634 C 0.660 4.211,-0.057 6.168,0.009 8.253 C 0.124 11.854,2.599 14.903,6.110 15.771 C 8.169 16.280,10.433 15.917,12.227 14.791 C 14.017 13.666,15.270 11.933,15.771 9.887 C 15.943 9.186,15.983 8.829,15.983 8.000 C 15.983 7.171,15.943 6.814,15.771 6.113 C 14.979 2.878,12.315 0.498,9.000 0.064 C 8.716 0.027,7.683 -0.006,7.493 0.015 M8.853 1.563 C 9.967 1.707,11.010 2.136,11.944 2.834 C 12.273 3.080,12.920 3.727,13.166 4.056 C 13.727 4.807,14.142 5.690,14.330 6.535 C 14.544 7.500,14.544 8.500,14.330 9.465 C 13.916 11.326,12.605 12.978,10.867 13.828 C 10.239 14.135,9.591 14.336,8.880 14.444 C 8.456 14.509,7.544 14.509,7.120 14.444 C 5.172 14.148,3.528 13.085,2.493 11.451 C 2.279 11.114,1.999 10.526,1.859 10.119 C 1.618 9.422,1.514 8.781,1.514 8.000 C 1.514 6.961,1.715 6.075,2.160 5.160 C 2.500 4.462,2.846 3.980,3.413 3.413 C 3.980 2.846,4.462 2.500,5.160 2.160 C 6.313 1.599,7.567 1.397,8.853 1.563 M7.706 4.290 C 7.482 4.363,7.355 4.491,7.293 4.705 C 7.257 4.827,7.253 5.106,7.259 6.816 C 7.267 8.786,7.267 8.787,7.325 8.896 C 7.398 9.033,7.538 9.157,7.671 9.204 C 7.803 9.250,8.197 9.250,8.329 9.204 C 8.462 9.157,8.602 9.033,8.675 8.896 C 8.733 8.787,8.733 8.786,8.741 6.816 C 8.749 4.664,8.749 4.662,8.596 4.481 C 8.472 4.333,8.339 4.284,8.040 4.276 C 7.893 4.272,7.743 4.278,7.706 4.290 M7.786 10.530 C 7.597 10.592,7.410 10.753,7.319 10.932 C 7.249 11.072,7.237 11.325,7.294 11.495 C 7.388 11.780,7.697 12.000,8.000 12.000 C 8.303 12.000,8.612 11.780,8.706 11.495 C 8.763 11.325,8.751 11.072,8.681 10.932 C 8.616 10.804,8.460 10.646,8.333 10.580 C 8.217 10.520,7.904 10.491,7.786 10.530 " stroke="none" fill-rule="evenodd" fill="" />
  </symbol>
  
  <symbol xmlns="http://www.w3.org/2000/svg" viewBox="0 0 26 26" id="icon-filter">
    <g fill="none">
      <path fill="#444" d="M2.558 12.102a1.93 1.93 0 012.605-.113l.123.113 10.142 10.141a1.93 1.93 0 01-2.606 2.841l-.123-.112L2.558 14.83a1.93 1.93 0 010-2.728z" />
      <path fill="#FFF" d="M23.182 1.017c1.007-.996 2.707-.34 2.806 1.026l.005.126v10.736c0 .9-.737 1.629-1.647 1.629a1.64 1.64 0 01-1.642-1.507l-.004-.122V6.1l-8.043 7.957c-1.007.995-2.707.34-2.806-1.026l-.005-.126V6.1l-8.043 7.957a1.66 1.66 0 01-2.223.095l-.105-.095a1.616 1.616 0 01-.096-2.2l.096-.104L12.328 1.017c1.007-.996 2.707-.34 2.806 1.026l.005.126v6.804l8.043-7.956z" />
    </g>
  </symbol>
  <symbol xmlns="http://www.w3.org/2000/svg" fill="none" viewBox="0 0 24 24" id="icon-eye">
    <path fill-rule="evenodd" clip-rule="evenodd" d="M6.30147 15.5771C4.77832 14.2684 3.6904 12.7726 3.18002 12C3.6904 11.2274 4.77832 9.73158 6.30147 8.42294C7.87402 7.07185 9.81574 6 12 6C14.1843 6 16.1261 7.07185 17.6986 8.42294C19.2218 9.73158 20.3097 11.2274 20.8201 12C20.3097 12.7726 19.2218 14.2684 17.6986 15.5771C16.1261 16.9282 14.1843 18 12 18C9.81574 18 7.87402 16.9282 6.30147 15.5771ZM12 4C9.14754 4 6.75717 5.39462 4.99812 6.90595C3.23268 8.42276 2.00757 10.1376 1.46387 10.9698C1.05306 11.5985 1.05306 12.4015 1.46387 13.0302C2.00757 13.8624 3.23268 15.5772 4.99812 17.0941C6.75717 18.6054 9.14754 20 12 20C14.8525 20 17.2429 18.6054 19.002 17.0941C20.7674 15.5772 21.9925 13.8624 22.5362 13.0302C22.947 12.4015 22.947 11.5985 22.5362 10.9698C21.9925 10.1376 20.7674 8.42276 19.002 6.90595C17.2429 5.39462 14.8525 4 12 4ZM10 12C10 10.8954 10.8955 10 12 10C13.1046 10 14 10.8954 14 12C14 13.1046 13.1046 14 12 14C10.8955 14 10 13.1046 10 12ZM12 8C9.7909 8 8.00004 9.79086 8.00004 12C8.00004 14.2091 9.7909 16 12 16C14.2092 16 16 14.2091 16 12C16 9.79086 14.2092 8 12 8Z" fill="#6e8098" />
  </symbol>
  <symbol xmlns="http://www.w3.org/2000/svg" fill="none" viewBox="0 0 24 24" id="icon-eye-crossed">
    <path fill-rule="evenodd" clip-rule="evenodd" d="M19.7071 5.70711C20.0976 5.31658 20.0976 4.68342 19.7071 4.29289C19.3166 3.90237 18.6834 3.90237 18.2929 4.29289L14.032 8.55382C13.4365 8.20193 12.7418 8 12 8C9.79086 8 8 9.79086 8 12C8 12.7418 8.20193 13.4365 8.55382 14.032L4.29289 18.2929C3.90237 18.6834 3.90237 19.3166 4.29289 19.7071C4.68342 20.0976 5.31658 20.0976 5.70711 19.7071L9.96803 15.4462C10.5635 15.7981 11.2582 16 12 16C14.2091 16 16 14.2091 16 12C16 11.2582 15.7981 10.5635 15.4462 9.96803L19.7071 5.70711ZM12.518 10.0677C12.3528 10.0236 12.1792 10 12 10C10.8954 10 10 10.8954 10 12C10 12.1792 10.0236 12.3528 10.0677 12.518L12.518 10.0677ZM11.482 13.9323L13.9323 11.482C13.9764 11.6472 14 11.8208 14 12C14 13.1046 13.1046 14 12 14C11.8208 14 11.6472 13.9764 11.482 13.9323ZM15.7651 4.8207C14.6287 4.32049 13.3675 4 12 4C9.14754 4 6.75717 5.39462 4.99812 6.90595C3.23268 8.42276 2.00757 10.1376 1.46387 10.9698C1.05306 11.5985 1.05306 12.4015 1.46387 13.0302C1.92276 13.7326 2.86706 15.0637 4.21194 16.3739L5.62626 14.9596C4.4555 13.8229 3.61144 12.6531 3.18002 12C3.6904 11.2274 4.77832 9.73158 6.30147 8.42294C7.87402 7.07185 9.81574 6 12 6C12.7719 6 13.5135 6.13385 14.2193 6.36658L15.7651 4.8207ZM12 18C11.2282 18 10.4866 17.8661 9.78083 17.6334L8.23496 19.1793C9.37136 19.6795 10.6326 20 12 20C14.8525 20 17.2429 18.6054 19.002 17.0941C20.7674 15.5772 21.9925 13.8624 22.5362 13.0302C22.947 12.4015 22.947 11.5985 22.5362 10.9698C22.0773 10.2674 21.133 8.93627 19.7881 7.62611L18.3738 9.04043C19.5446 10.1771 20.3887 11.3469 20.8201 12C20.3097 12.7726 19.2218 14.2684 17.6986 15.5771C16.1261 16.9282 14.1843 18 12 18Z" fill="#6e8098" />
  </symbol>
  <symbol xmlns="http://www.w3.org/2000/svg" viewBox="0 0 24 24" fill="none" id="icon-user">
    <circle cx="12" cy="9" r="3" stroke-width="1.5" stroke="#fff" />
    <circle cx="12" cy="12" r="10" stroke-width="1.5" stroke="#fff" />
    <path d="M17.9691 20C17.81 17.1085 16.9247 15 11.9999 15C7.07521 15 6.18991 17.1085 6.03076 20" stroke="#fff" stroke-width="1.5" stroke-linecap="round" />
  </symbol>
  <symbol xmlns="http://www.w3.org/2000/svg" viewBox="0 0 24 24" fill="none" id="icon-login">
    <path d="M8 16C8 18.8284 8 20.2426 8.87868 21.1213C9.75736 22 11.1716 22 14 22H15C17.8284 22 19.2426 22 20.1213 21.1213C21 20.2426 21 18.8284 21 16V8C21 5.17157 21 3.75736 20.1213 2.87868C19.2426 2 17.8284 2 15 2H14C11.1716 2 9.75736 2 8.87868 2.87868C8 3.75736 8 5.17157 8 8" stroke="#fff" stroke-width="1.5" stroke-linecap="round" />
    <path opacity="0.5" d="M8 19.5C5.64298 19.5 4.46447 19.5 3.73223 18.7678C3 18.0355 3 16.857 3 14.5V9.5C3 7.14298 3 5.96447 3.73223 5.23223C4.46447 4.5 5.64298 4.5 8 4.5" stroke="#fff" stroke-width="1.5" />
    <path d="M6 12L15 12M15 12L12.5 14.5M15 12L12.5 9.5" stroke="#fff" stroke-width="1.5" stroke-linecap="round" stroke-linejoin="round" />
  </symbol>
  <symbol xmlns="http://www.w3.org/2000/svg" fill="none" id="icon-dot">
    <circle cx="2" cy="2" r="2" fill="#6E8098" />
  </symbol>
  <symbol xmlns="http://www.w3.org/2000/svg" xmlns:xlink="http://www.w3.org/1999/xlink" 
	 viewBox="0 0 486.4 486.4" xml:space="preserve" id="icon-settings">
    <g>
    	<g>
    		<path d="M454.8,195.05h-20.7c-4.7-18.6-12-36.3-21.9-52.7l14.7-14.7c6-6,9.3-13.9,9.3-22.4s-3.3-16.4-9.3-22.4l-23.4-23.4
    			c-6-6-13.9-9.3-22.4-9.3s-16.4,3.3-22.4,9.3l-14.6,14.8c-16.5-9.9-34.1-17.2-52.7-21.9v-20.7c0-17.4-14.2-31.6-31.6-31.6h-33
    			c-17.4,0-31.6,14.2-31.6,31.6v20.7c-18.6,4.7-36.3,12-52.7,21.9l-14.7-14.7c-6-6-13.9-9.3-22.4-9.3S89,53.55,83,59.55l-23.5,23.4
    			c-6,6-9.3,13.9-9.3,22.4s3.3,16.4,9.3,22.4l14.7,14.6c-9.9,16.5-17.2,34.1-21.9,52.7H31.6c-17.4,0-31.6,14.2-31.6,31.6v33
    			c0,17.4,14.2,31.6,31.6,31.6h20.7c4.7,18.6,12,36.3,21.9,52.7l-14.7,14.7c-6,6-9.3,13.9-9.3,22.4s3.3,16.4,9.3,22.4l23.4,23.4
    			c6,6,13.9,9.3,22.4,9.3s16.4-3.3,22.4-9.3l14.7-14.7c16.5,9.9,34.1,17.2,52.7,21.9v20.7c0,17.4,14.2,31.6,31.6,31.6h33
    			c17.4,0,31.6-14.2,31.6-31.6v-20.7c18.6-4.7,36.3-12,52.7-21.9l14.7,14.7c6,6,13.9,9.3,22.4,9.3s16.4-3.3,22.4-9.3l23.4-23.4
    			c6-6,9.3-13.9,9.3-22.4s-3.3-16.4-9.3-22.4l-14.7-14.5c9.9-16.5,17.2-34.1,21.9-52.7h20.7c17.4,0,31.6-14.2,31.6-31.6v-33
    			C486.4,209.25,472.2,195.05,454.8,195.05z M462.4,259.75c0,4.2-3.4,7.6-7.6,7.6h-30.3c-5.7,0-10.7,4-11.8,9.7
    			c-4.4,22.3-13.1,43.2-25.7,62.1c-3.2,4.8-2.6,11.1,1.5,15.2l21.5,21.5c1.4,1.4,2.2,3.4,2.2,5.4s-0.8,4-2.2,5.4l-23.4,23.4
    			c-1.4,1.4-3.4,2.2-5.4,2.2s-4-0.8-5.4-2.2l-21.5-21.5c-4-4-10.4-4.7-15.2-1.5c-18.9,12.7-39.8,21.3-62.1,25.7
    			c-5.6,1.1-9.7,6-9.7,11.8v30.3c0,4.2-3.4,7.6-7.6,7.6h-33c-4.2,0-7.6-3.4-7.6-7.6v-30.3c0-5.7-4-10.7-9.7-11.8
    			c-22.3-4.4-43.2-13.1-62.1-25.7c-2-1.4-4.4-2-6.7-2c-3.1,0-6.2,1.2-8.5,3.5l-21.5,21.5c-1.4,1.4-3.4,2.2-5.4,2.2s-4-0.8-5.4-2.2
    			l-23.4-23.4c-1.4-1.4-2.2-3.4-2.2-5.4s0.8-4,2.2-5.4l21.5-21.5c4-4,4.7-10.4,1.5-15.2c-12.7-18.9-21.3-39.8-25.7-62.1
    			c-1.1-5.6-6-9.7-11.8-9.7H31.6c-4.2,0-7.6-3.4-7.6-7.6v-33c0-4.2,3.4-7.6,7.6-7.6h30.3c5.7,0,10.7-4,11.8-9.7
    			c4.4-22.3,13.1-43.2,25.7-62.1c3.2-4.8,2.6-11.1-1.5-15.2l-21.5-21.5c-1.4-1.4-2.2-3.4-2.2-5.4s0.8-4,2.2-5.4l23.4-23.4
    			c1.4-1.4,3.4-2.2,5.4-2.2s4,0.8,5.4,2.2l21.5,21.5c4,4,10.4,4.7,15.2,1.5c18.9-12.7,39.8-21.3,62.1-25.7c5.6-1.1,9.7-6,9.7-11.8
    			v-30.3c0-4.2,3.4-7.6,7.6-7.6h33c4.2,0,7.6,3.4,7.6,7.6v30.3c0,5.7,4,10.7,9.7,11.8c22.3,4.4,43.2,13.1,62.1,25.7
    			c4.8,3.2,11.1,2.6,15.2-1.5l21.5-21.5c1.4-1.4,3.4-2.2,5.4-2.2s4,0.8,5.4,2.2l23.4,23.4c1.4,1.4,2.2,3.4,2.2,5.4s-0.8,4-2.2,5.4
    			l-21.5,21.5c-4,4-4.7,10.4-1.5,15.2c12.7,18.9,21.3,39.8,25.7,62.1c1.1,5.6,6,9.7,11.8,9.7h30.3c4.2,0,7.6,3.4,7.6,7.6V259.75z"/>
    		<path d="M313.7,181.65c4.4-5,3.9-12.5-1-16.9c-5-4.4-12.5-3.9-16.9,1c-4.4,5-3.9,12.6,1,16.9c2.3,2,5.1,3,7.9,3
    			C308,185.65,311.3,184.25,313.7,181.65z"/>
    		<path d="M280.9,314.75c-5.9,3.1-8.1,10.4-5,16.2c2.1,4.1,6.3,6.4,10.6,6.4c1.9,0,3.8-0.4,5.6-1.4c5.9-3.1,8.1-10.4,5-16.2
    			C294,313.95,286.8,311.65,280.9,314.75z"/>
    		<path d="M268.2,141.35c-6.4-1.6-12.9,2.4-14.5,8.8c-1.6,6.4,2.4,12.9,8.8,14.5c1,0.2,1.9,0.3,2.9,0.3c5.4,0,10.3-3.7,11.6-9.1
    			C278.6,149.45,274.6,142.95,268.2,141.35z"/>
    		<path d="M160,286.15c-5.4,3.8-6.8,11.3-3,16.7c2.3,3.4,6.1,5.2,9.9,5.2c2.4,0,4.7-0.7,6.8-2.1c5.4-3.8,6.8-11.3,3-16.7
    			C172.9,283.75,165.4,282.35,160,286.15z"/>
    		<path d="M326.5,285.95c-5.5-3.8-12.9-2.4-16.7,3.1c-3.8,5.5-2.4,12.9,3.1,16.7c2.1,1.4,4.5,2.1,6.8,2.1c3.8,0,7.6-1.8,9.9-5.2
    			C333.3,297.25,332,289.75,326.5,285.95z"/>
    		<path d="M336.8,242.35c-6.6-0.8-12.5,3.9-13.3,10.5l0,0c-0.8,6.6,3.9,12.6,10.5,13.3c0.5,0.1,1,0.1,1.4,0.1
    			c6,0,11.2-4.5,11.9-10.6C348.1,249.15,343.4,243.15,336.8,242.35z"/>
    		<path d="M330,222.15c1.4,0,2.9-0.3,4.3-0.8c6.2-2.4,9.3-9.3,6.9-15.5s-9.3-9.3-15.5-6.9c-6.2,2.4-9.3,9.3-6.9,15.5
    			C320.6,219.25,325.2,222.15,330,222.15z"/>
    		<path d="M162.9,253.05c-0.8-6.6-6.8-11.3-13.4-10.5c-6.6,0.8-11.3,6.8-10.5,13.4c0.7,6.1,5.9,10.6,11.9,10.6c0.5,0,1,0,1.4-0.1
    			C159,265.65,163.7,259.65,162.9,253.05z"/>
    		<path d="M152.1,221.55c1.4,0.5,2.8,0.8,4.3,0.8c4.8,0,9.4-2.9,11.2-7.8c2.4-6.2-0.8-13.1-7-15.5c-6.2-2.3-13.1,0.8-15.5,7l0,0
    			C142.8,212.35,145.9,219.25,152.1,221.55z"/>
    		<path d="M243.4,324.05C243.3,324.05,243.3,324.05,243.4,324.05c-0.1,0-0.1,0-0.2,0c-6.6,0-12,5.4-12,12s5.4,12,12,12h0.1h0.1
    			c6.6,0,12-5.4,12-12C255.4,329.45,250,324.05,243.4,324.05z"/>
    		<path d="M232.5,150.25c-1.6-6.4-8.1-10.4-14.5-8.8c-6.4,1.6-10.4,8.1-8.8,14.5c1.3,5.5,6.3,9.1,11.6,9.1c0.9,0,1.9-0.1,2.9-0.4
    			C230.2,163.15,234.1,156.65,232.5,150.25z"/>
    		<path d="M205.6,314.85c-5.9-3.1-13.1-0.8-16.2,5c-3.1,5.9-0.8,13.1,5,16.2c1.8,0.9,3.7,1.4,5.6,1.4c4.3,0,8.5-2.3,10.6-6.4
    			C213.8,325.25,211.5,317.95,205.6,314.85z"/>
    		<path d="M190.5,165.85c-4.4-5-12-5.4-16.9-1s-5.4,12-1,16.9c2.4,2.7,5.7,4,9,4c2.8,0,5.7-1,8-3
    			C194.5,178.35,195,170.75,190.5,165.85z"/>
    	</g>
    </g>
  </symbol>
  <symbol  viewBox="0 0 24 24" fill="none" xmlns="http://www.w3.org/2000/svg" >
    <path d="M21.2799 6.40005L11.7399 15.94C10.7899 16.89 7.96987 17.33 7.33987 16.7C6.70987 16.07 7.13987 13.25 8.08987 12.3L17.6399 2.75002C17.8754 2.49308 18.1605 2.28654 18.4781 2.14284C18.7956 1.99914 19.139 1.92124 19.4875 1.9139C19.8359 1.90657 20.1823 1.96991 20.5056 2.10012C20.8289 2.23033 2 1.1225 2.42473 21.3686 2.67153C21.6147 2.91833 21.8083 3.21243 21.9376 3.53609C22.0669 3.85976 22.1294 4.20626 22.1211 4.55471C22.1128 4.90316 22.0339 5.24635 21.8894 5.5635C21.7448 5.88065 21.5375 6.16524 21.2799 6.40005V6.40005Z" stroke="#000000" stroke-width="1.5" stroke-linecap="round" stroke-linejoin="round"/>
    <path d="M11 4H6C4.93913 4 3.92178 4.42142 3.17163 5.17157C2.42149 5.92172 2 6.93913 2 8V18C2 19.0609 2.42149 20.0783 3.17163 20.8284C3.92178 21.5786 4.93913 22 6 22H17C19.21 22 20 20.2 20 18V13" stroke="#000000" stroke-width="1.5" stroke-linecap="round" stroke-linejoin="round"/>
  </symbol>
  <symbol viewBox="0 0 1024 1024" xmlns="http://www.w3.org/2000/svg" id="icon-delete"  >
    <path d="M960 160h-291.2a160 160 0 0 0-313.6 0H64a32 32 0 0 0 0 64h896a32 32 0 0 0 0-64zM512 96a96 96 0 0 1 90.24 64h-180.48A96 96 0 0 1 512 96zM844.16 290.56a32 32 0 0 0-34.88 6.72A32 32 0 0 0 800 320a32 32 0 1 0 64 0 33.6 33.6 0 0 0-9.28-22.72 32 32 0 0 0-10.56-6.72zM832 416a32 32 0 0 0-32 32v96a32 32 0 0 0 64 0v-96a32 32 0 0 0-32-32zM832 640a32 32 0 0 0-32 32v224a32 32 0 0 1-32 32H256a32 32 0 0 1-32-32V320a32 32 0 0 0-64 0v576a96 96 0 0 0 96 96h512a96 96 0 0 0 96-96v-224a32 32 0 0 0-32-32z"  /><path d="M384 768V352a32 32 0 0 0-64 0v416a32 32 0 0 0 64 0zM544 768V352a32 32 0 0 0-64 0v416a32 32 0 0 0 64 0zM704 768V352a32 32 0 0 0-64 0v416a32 32 0 0 0 64 0z" />
  </symbol>
<symbol viewBox="0 0 24 24"  xmlns="http://www.w3.org/2000/svg" id="icon-edit">
  <g id="SVGRepo_bgCarrier" stroke-width="0"></g>
  <g id="SVGRepo_tracerCarrier" stroke-linecap="round" stroke-linejoin="round"></g>
  <g id="SVGRepo_iconCarrier">
    <path fill-rule="evenodd" clip-rule="evenodd" d="M12 21C12 20.4477 12.4477 20 13 20H21C21.5523 20 22 20.4477 22 21C22 21.5523 21.5523 22 21 22H13C12.4477 22 12 21.5523 12 21Z" ></path> 
    <path fill-rule="evenodd" clip-rule="evenodd" d="M20.7736 8.09994C22.3834 6.48381 22.315 4.36152 21.113 3.06183C20.5268 2.4281 19.6926 2.0233 18.7477 2.00098C17.7993 1.97858 16.8167 2.34127 15.91 3.09985C15.8868 3.11925 15.8645 3.13969 15.8432 3.16111L2.87446 16.1816C2.31443 16.7438 2 17.5051 2 18.2987V19.9922C2 21.0937 2.89197 22 4.00383 22H5.68265C6.48037 22 7.24524 21.6823 7.80819 21.1171L20.7736 8.09994ZM17.2071 5.79295C16.8166 5.40243 16.1834 5.40243 15.7929 5.79295C15.4024 6.18348 15.4024 6.81664 15.7929 7.20717L16.7929 8.20717C17.1834 8.59769 17.8166 8.59769 18.2071 8.20717C18.5976 7.81664 18.5976 7.18348 18.2071 6.79295L17.2071 5.79295Z" >
    </path> 
  </g>
</symbol>

<symbol width="20" height="20" viewBox="0 0 24 24" xmlns="http://www.w3.org/2000/svg" id="icon-accept">
  <defs>
    <style>
      .cls-1 {
        fill-rule: evenodd;
      }
    </style>
  </defs>
  <path id="accept" class="cls-1" d="M1008,120a12,12,0,1,1,12-12A12,12,0,0,1,1008,120Zm0-22a10,10,0,1,0,10,10A10,10,0,0,0,1008,98Zm-0.08,14.333a0.819,0.819,0,0,1-.22.391,0.892,0.892,0,0,1-.72.259,0.913,0.913,0,0,1-.94-0.655l-2.82-2.818a0.9,0.9,0,0,1,1.27-1.271l2.18,2.184,4.46-7.907a1,1,0,0,1,1.38-.385,1.051,1.051,0,0,1,.36,1.417Z" transform="translate(-996 -96)"/>
</symbol>
  <symbol id="icon-map" width="96" height="96" viewBox="0 0 1024 1024" class="icon"  version="1.1" xmlns="http://www.w3.org/2000/svg"><path   d="M786 279l-48-13 48-13 13-48 13 48 49 13-49 13-13 49-13-49zM834 332l-19-4 19-5 4-19 5 19 19 5-19 4-5 19-4-19z"  fill="#FDCD60" /><path d="M159 715l-21-5 21-5 5-21 5 21 21 5-21 5-5 21-5-21z" fill="#FDCD60" /><path d="M244 247m-9 0a9 9 0 1  0 18 0 9 9 0 1 0-18 0Z" fill="#5546CB" /><path d="M288 821l-27-6 27-7 6-27 7 27 27 7-27 6-7 27-6-27z" fill="#FDCD60" /><path   d="M832 828a25 25 0 1 1 25-25 25 25 0 0 1-25 25z m0-36a10 10 0 1 0 10 10 10 10 0 0 0-10-10z" fill="#5546CB" /><path d="M627   502l-10-17 11-7V287l-22 14a95 95 0 0 1 3 24c0 28-19 64-58 108 21 7 34 19 34 34s-31 40-71 40-71-17-71-40 13-27 34-34l-25-30-40   26v180h2l11-7 11 17-17 10h-7v112l216-102V501z m-135 83l-16 10-8 5-8 5h-1l-5-9-5-8 9-5 24-15 10 17z m56-35l-33 20-10-17 33-20  10 17z m56-35l-33 20-10-17 17-10 16-10 10 17zM188 640l204 99V427L188 296z m162-74l32 22-11 16-32-22z m-57-31l4-5 8 6 23 16-11  16-15-11-8-6-8-6z m-42-45a29 29 0 1 1-29 29 29 29 0 0 1 30-29zM648 477l12 6-9 18-3-2v141l217 95V428L648 285z m176 68a29 29 0 1   1-29 29 29 29 0 0 1 29-29z m-72-15l36 19-9 18-36-18z m-69-23l5-10 9 4 9 4 18 9-9 18-27-14-9-4z" fill="#FDCD60" /><path d="M640  256l-41 27a95 95 0 0 0-181 43c0 17 7 38 22 61l-37 24-235-151v392l236 115 233-110 248 108V417z m-202 69a75 75 0 0 1 151 0c0   33-40 81-75 118-62-63-76-99-76-118z m97 124c18 4 29 12 29 18s-20 20-51 20-51-12-51-20 11-14 29-18l15 15 7 7 7-7zM392  739l-204-99V296l204 131z m20 2V630h7l17-10-11-17-11 7h-2V429l40-26 25 30c-21 7-34 19-34 34s31 40 71 40 71-17   71-40-13-27-34-34c39-44 58-80 58-108a95 95 0 0 0-3-24l22-14v190l-11 7 10 17h1v138z m453-6l-217-95V499l3 2 9-18-12-6V285l217   143z" fill="#5546CB" /><path d="M286 546l8 5 8 6 15 11 12-17-24-16-8-6-4 5-7 12zM371 604l11-16-32-22-11 16 32 22zM481 568l-24   15-9 5 1 1h-1l5 8 5 9v-1l1 1 8-5 9-5h-1l17-11-11-17zM537 534l-33 20 11 17 33-20-10-17h-1zM594 499l-16 10-17 10 10 17  33-20-10-17zM679 515l9 4 27 14 9-17v-1l-18-9-9-4-9-5-5 10-4 8zM779 566l9-18-36-18-9 17v1l36 18z" fill="#5546CB" /><path  d="M824 585a11 11 0 1 0-11-11 11 11 0 0 0 11 11z" fill="#F97744" /><path d="M824 603a29 29 0 1 0-29-29 29 29 0 0 0 29 29z  m0-40a11 11 0 1 1-11 11 11 11 0 0 1 11-11z" fill="#5546CB" /><path d="M252 530a11 11 0 1 0-11-11 11 11 0 0 0 11 11z"   fill="#FFFFFF" /><path d="M252 548a29 29 0 1 0-29-29 29 29 0 0 0 29 29z m0-40a11 11 0 1 1-11 11 11 11 0 0 1 11-11z"   fill="#5546CB" /><path d="M507 465l-15-15c-18 4-29 12-29 18s20 20 51 20 51-12 51-20-11-14-29-18l-15 15-7 7z" fill="#AFBCF3" / ><path d="M514 444c36-37 75-85 75-118a75 75 0 0 0-151 0c0 18 14 54 76 118z m-35-117a35 35 0 1 1 35 35 35 35 0 0 1-35-35z"  fill="#F97744" /><path d="M514 327m-35 0a35 35 0 1 0 70 0 35 35 0 1 0-70 0Z" fill="#FFFFFF" /></symbol>
  <symbol id="join-event" fill="#000000" xmlns="http://www.w3.org/2000/svg" xmlns:xlink="http://www.w3.org/1999/xlink" >
    <path d="M2.016 28q0 0.832 0.576 1.44t1.408 0.576h14.016v-0.352q-1.792-0.608-2.912-2.176t-1.088-3.488q0-2.016 1.184-3.584t3.072-2.112q0.384-1.216 1.216-2.176t2.016-1.504q0.512-1.376 0.512-2.624v-1.984q0-3.328-2.368-5.664t-5.632-2.336-5.664 2.336-2.336 5.664v1.984q0 2.112 1.024 3.904t2.784 2.912q-1.504 0.544-2.912 1.504t-2.496 2.144-1.76 2.624-0.64 2.912zM18.016 24q0 0.832 0.576 1.44t1.408 0.576h2.016v1.984q0 0.864 0.576 1.44t1.408 0.576 1.408-0.576 0.608-1.44v-1.984h1.984q0.832 0 1.408-0.576t0.608-1.44-0.608-1.408-1.408-0.576h-1.984v-2.016q0-0.832-0.608-1.408t-1.408-0.576-1.408 0.576-0.576 1.408v2.016h-2.016q-0.832 0-1.408 0.576t-0.576 1.408z"></path>
  </symbol>
	<symbol id="friend-search" height="800px" width="800px" 
	 viewBox="0 0 512 512"  xml:space="preserve" xmlns="http://www.w3.org/2000/svg">
<style type="text/css">
	.st0{fill:#000000;}
</style>
<g>
	<path class="st0" d="M215.736,361.283c0-36.31,14.115-70.422,39.749-96.048c13.081-13.072,28.379-23.108,45.031-29.836
		c3.966-11.08,7.217-24.029,9.642-37.795c11.54-4.117,18.118-10.703,26.349-39.524c8.758-30.701-13.174-29.658-13.174-29.658
		c17.741-58.704-5.6-113.874-44.712-109.824c-26.97-47.183-117.294,10.779-145.598,6.738c0,16.182,6.728,28.314,6.728,28.314
		c-9.83,18.681-6.033,55.932-3.271,74.773c-1.597-0.028-21.425,0.179-13.024,29.658c8.232,28.821,14.828,35.407,26.35,39.524
		c4.943,28.003,13.25,52.708,24.207,64.878c0,14.594,0,25.24,0,33.764c0,12.865-29.319,34.534-46.534,40.605
		C91.938,349.368,4.582,385.368,10.22,452.802c1.354,16.182,90.326,32.974,219.761,32.974c22.76,0,44.167-0.544,64.164-1.484
		c-14.171-6.616-27.27-15.572-38.66-26.942C229.851,431.715,215.736,397.594,215.736,361.283z"/>
	<path class="st0" d="M493.326,469.83l-51.928-50.575c11.089-17.113,17.066-37.063,17.066-57.972
		c0-28.604-11.108-55.461-31.293-75.637c-20.166-20.176-47.023-31.293-75.628-31.293c-28.604,0-55.461,11.117-75.646,31.293
		c-20.166,20.176-31.292,47.033-31.292,75.637c0,28.605,11.126,55.472,31.292,75.647c20.186,20.176,47.042,31.292,75.646,31.292
		c20.919,0,40.859-5.995,57.98-17.084l50.556,51.91c9.417,11.36,23.324,12.037,34.075,1.288
		C504.923,493.594,504.678,479.227,493.326,469.83z M392.119,401.87c-10.844,10.835-25.24,16.802-40.577,16.802
		c-15.317,0-29.732-5.977-40.577-16.812c-10.844-10.834-16.802-25.25-16.802-40.577c0-15.326,5.958-29.732,16.802-40.567
		c10.845-10.834,25.241-16.811,40.577-16.811c15.318,0,29.733,5.976,40.577,16.811C414.485,343.09,414.485,379.495,392.119,401.87z"
		/>
</g>
</symbol>

<symbol id="friends" height="800px" width="800px" 
	 viewBox="0 0 484.504 484.504" xml:space="preserve">
<g>
	<g>
		<path style="fill:#010002;" d="M217.495,182.239c4.311-2.849,8.33-5.529,11.979-7.737c8.688-5.25,11.482-16.554,6.214-25.239
			c-5.238-8.689-16.546-11.461-25.228-6.223c-4.053,2.445-8.521,5.403-13.291,8.56c-15.428,10.229-38.895,26.148-52.063,22.426
			c-9.625-2.72-10.786-9.35-13.954-14.155c-6.818-12.582-21.304-20.933-34.394-20.66c0,0-11.675,0-25.898,5.596
			C6.77,167.663,6.599,182.826,6.607,190.242c0.009,6.763,0.148,13.298,19.12,24.331H0.061L0,428.281h160.066l10.625-97.807
			c0,0-53.075-3.91-79.508-7.738c-31.757-4.598-37.31-33.873-37.31-33.873l-16.527-68.152c9.471,4.613,21.767,9.904,38,16.161
			c2.173,0.835,4.403,1.232,6.6,1.232c7.385,0,14.343-4.48,17.161-11.773c3.648-9.479-1.077-20.123-10.55-23.768
			c-9.992-3.85-21.175-8.567-30.436-12.829c1.586-0.731,3.328-1.483,5.045-2.242l25.673,10.199
			c15.497,5.984,19.826,18.521,15.244,30.435c-3.421,8.887-13.746,19.954-31.866,12.799c-5.595-2.208-10.633-4.17-15.406-6.138
			l7.973,51.806c2.271,14.746,11.323,22.381,27.008,26.607c7.576,3.164,89.693,9.396,89.693,9.396
			c-2.765,32.17-8.396,84.957-9.074,91.129c-1.841,12.832,6.466,25.123,19.312,28.02c1.856,0.412,3.714,0.611,5.527,0.611
			c11.468,0,21.809-7.922,24.431-19.574c1.103-4.912,10.737-119.828,10.828-120.973c0.579-6.967-2.082-14.563-6.798-19.717
			c-6.053-6.619-11.479-12.469-75.965-14.654l-8.762-56.881c2.623,0.394,5.247,0.656,7.876,0.656
			C173.806,211.214,198.637,194.748,217.495,182.239z"/>
		<circle style="fill:#010002;" cx="89.108" cy="89.494" r="47.348"/>
		<path style="fill:#010002;" d="M484.446,214.573h-25.668c18.972-11.033,19.112-17.568,19.12-24.331
			c0.008-7.416-0.162-22.579-64.253-45.435c-14.225-5.596-25.897-5.596-25.897-5.596c-13.091-0.273-27.576,8.078-34.394,20.66
			c-3.17,4.805-4.329,11.436-13.954,14.155c-13.169,3.723-36.637-12.197-52.063-22.426c-4.771-3.156-9.238-6.115-13.293-8.56
			c-8.68-5.239-19.988-2.466-25.227,6.223c-5.27,8.685-2.475,19.989,6.214,25.239c3.648,2.208,7.669,4.888,11.979,7.737
			c18.857,12.509,43.688,28.975,68.634,28.975c2.629,0,5.254-0.262,7.876-0.656l-8.761,56.881
			c-64.486,2.186-69.912,8.035-75.966,14.654c-4.717,5.154-7.377,12.75-6.797,19.717c0.091,1.145,9.725,116.061,10.827,120.973
			c2.623,11.652,12.964,19.574,24.432,19.574c1.813,0,3.67-0.199,5.526-0.611c12.845-2.896,21.153-15.188,19.313-28.02
			c-0.68-6.172-6.312-58.959-9.074-91.129c0,0,82.117-6.232,89.693-9.396c15.684-4.227,24.735-11.861,27.008-26.607l7.972-51.806
			c-4.772,1.968-9.813,3.929-15.406,6.138c-18.12,7.154-28.445-3.913-31.866-12.799c-4.583-11.914-0.253-24.451,15.244-30.435
			l25.672-10.199c1.719,0.759,3.46,1.51,5.046,2.242c-9.26,4.262-20.442,8.979-30.435,12.829
			c-9.474,3.645-14.199,14.289-10.551,23.768c2.818,7.293,9.776,11.773,17.16,11.773c2.197,0,4.429-0.397,6.602-1.232
			c16.232-6.256,28.528-11.547,37.999-16.161l-16.527,68.152c0,0-5.553,29.275-37.31,33.873
			c-26.433,3.828-79.507,7.738-79.507,7.738l10.624,97.807h160.066L484.446,214.573z"/>
		<circle style="fill:#010002;" cx="395.399" cy="89.494" r="47.348"/>
	</g>
</g>
</symbol>
<symbol id="request-sent" width="800px" height="800px" viewBox="0 0 16 16">
  <path id="Path_50" data-name="Path 50" d="M-11.5,0h-11A2.5,2.5,0,0,0-25,2.5v8A2.5,2.5,0,0,0-22.5,13h.5v2.5a.5.5,0,0,0,.309.462A.489.489,0,0,0-21.5,16a.5.5,0,0,0,.354-.146L-18.293,13H-11.5A2.5,2.5,0,0,0-9,10.5v-8A2.5,2.5,0,0,0-11.5,0ZM-10,10.5A1.5,1.5,0,0,1-11.5,12h-7a.5.5,0,0,0-.354.146L-21,14.293V12.5a.5.5,0,0,0-.5-.5h-1A1.5,1.5,0,0,1-24,10.5v-8A1.5,1.5,0,0,1-22.5,1h11A1.5,1.5,0,0,1-10,2.5Zm-2.038-3.809a.518.518,0,0,1-.109.163l-2,2A.5.5,0,0,1-14.5,9a.5.5,0,0,1-.354-.146.5.5,0,0,1,0-.708L-13.707,7H-18.5A1.5,1.5,0,0,0-20,8.5a.5.5,0,0,1-.5.5.5.5,0,0,1-.5-.5A2.5,2.5,0,0,1-18.5,6h4.793l-1.147-1.146a.5.5,0,0,1,0-.708.5.5,0,0,1,.708,0l2,2a.518.518,0,0,1,.109.163A.505.505,0,0,1-12.038,6.691Z" transform="translate(25)"/>
</symbol>
<symbol id="request-received" width="800px" height="800px" viewBox="0 0 16 16">
  <path id="Path_49" data-name="Path 49" d="M30.5,16a.489.489,0,0,1-.191-.038A.5.5,0,0,1,30,15.5V13h-.5A2.5,2.5,0,0,1,27,10.5v-8A2.5,2.5,0,0,1,29.5,0h11A2.5,2.5,0,0,1,43,2.5v8A2.5,2.5,0,0,1,40.5,13H33.707l-2.853,2.854A.5.5,0,0,1,30.5,16Zm-1-15A1.5,1.5,0,0,0,28,2.5v8A1.5,1.5,0,0,0,29.5,12h1a.5.5,0,0,1,.5.5v1.793l2.146-2.147A.5.5,0,0,1,33.5,12h7A1.5,1.5,0,0,0,42,10.5v-8A1.5,1.5,0,0,0,40.5,1ZM36,9a1,1,0,1,0-1,1A1,1,0,0,0,36,9Zm1-4a2,2,0,0,0-4,0,.5.5,0,0,0,1,0,1,1,0,1,1,1,1,.5.5,0,0,0,0,1A2,2,0,0,0,37,5Z" transform="translate(-27)"/>
</symbol>
<symbol fill="#000000" height="200px" width="200px" version="1.1" id="sign-in" xmlns="http://www.w3.org/2000/svg" xmlns:xlink="http://www.w3.org/1999/xlink" viewBox="0 0 296.999 296.999" xml:space="preserve"><g id="SVGRepo_bgCarrier" stroke-width="0"></g><g id="SVGRepo_tracerCarrier" stroke-linecap="round" stroke-linejoin="round"></g><g id="SVGRepo_iconCarrier"> <g> <g> <g> <path d="M146.603,0c-31.527,0-61.649,9.762-87.11,28.232c-4.377,3.176-5.567,9.188-2.73,13.791l23.329,37.845 c1.509,2.449,3.971,4.158,6.793,4.716c2.82,0.559,5.748-0.084,8.077-1.773c13.897-10.081,30.343-15.41,47.56-15.41 c44.718,0,81.098,36.38,81.098,81.098c0,44.718-36.38,81.098-81.098,81.098c-17.217,0-33.663-5.329-47.56-15.41 c-2.329-1.689-5.255-2.331-8.077-1.773c-2.821,0.558-5.283,2.267-6.793,4.716l-23.329,37.846 c-2.838,4.603-1.647,10.615,2.73,13.791c25.46,18.47,55.583,28.232,87.11,28.232c81.883,0,148.5-66.617,148.5-148.5 S228.486,0,146.603,0z M146.603,276.326c-23.925,0-46.906-6.529-67.024-18.965l12.579-20.407 c15.288,8.741,32.497,13.317,50.364,13.317c56.117,0,101.771-45.655,101.771-101.771c0-56.116-45.655-101.771-101.771-101.771 c-17.866,0-35.076,4.576-50.364,13.317L79.579,39.638c20.117-12.435,43.099-18.965,67.024-18.965 c70.483,0,127.826,57.343,127.826,127.826S217.087,276.326,146.603,276.326z"></path> <path d="M105.966,193.934c-2.115,3.172-2.312,7.25-0.513,10.611c1.799,3.36,5.302,5.459,9.113,5.459h45.482 c3.456,0,6.684-1.727,8.601-4.603l34.112-51.167c2.315-3.472,2.315-7.996,0-11.467L168.65,91.599 c-1.917-2.876-5.144-4.603-8.601-4.603h-45.482c-3.812,0-7.315,2.099-9.113,5.459c-1.799,3.361-1.602,7.44,0.513,10.611 l12.027,18.041H29.288c-15.104,0-27.393,12.288-27.393,27.393s12.288,27.393,27.393,27.393h88.705L105.966,193.934z M29.288,155.219c-3.705,0-6.719-3.014-6.719-6.719c0-3.705,3.014-6.719,6.719-6.719h108.02c3.812,0,7.315-2.099,9.113-5.459 c1.799-3.361,1.602-7.44-0.513-10.611l-12.027-18.041h20.635l27.22,40.83l-27.22,40.83h-20.635l12.027-18.041 c2.115-3.172,2.312-7.25,0.513-10.611c-1.799-3.36-5.302-5.459-9.113-5.459H29.288z"></path> </g> </g> </g> </g></symbol>
</svg>